<svg xmlns="http://www.w3.org/2000/svg" viewBox="0 0 64 64"><path d="m31.9997112 43 .0002896 7.8302952c-.6624781 0-1.3249564-.2316659-1.8554906-.6949984l-.1413212-.1321078-3.7280184-3.7280184c-.335522-.335522-.335522-.8795107 0-1.2150328l.0656647-.0592287C27.9923331 43.6650846 29.9960134 43 31.9997112 43Zm.0005784 0c2.0036978 0 4.0073782.6650846 5.6588759 2.0009091l.0656647.0592287c.335522.3355221.335522.8795108 0 1.2150328l-3.7280184 3.7280184-.1413212.1321078c-.5305342.4633325-1.1930124.6949984-1.8554906.6949984L32.0002896 43Zm-.0004668-14-.0003874 8c-3.3917646.0001269-6.7834944 1.1434792-9.5476027 3.4300571l-.2285846.1959083c-.0423687.0373204-.086873.0769754-.1335129.1189648-.3923669.3585725-.9965942.3438628-1.3733338-.031081l-.093912-.0916788-4.1624834-4.1621644c-.3627383-.3582277-.3908871-.9252851-.0860533-1.3177029l.1317896-.140792C20.8883246 31.0005462 26.4440675 29 31.9998228 29Zm.0003553 0c5.3970194 0 10.7940271 1.8878648 15.1155848 5.6634704l.3988894.3573992.0282512.0271893c.3903463.3907022.3900578 1.0238671-.0029086 1.4119471l-4.1624834 4.1621644-.0939121.0916788c-.3767395.3749438-.9809668.3896535-1.3733338.031081l-.254212-.2239225c-.0380974-.0326514-.0740593-.0629683-.1078855-.0909506C38.7840599 38.1434792 35.3923301 37.0001269 32.0005654 37l-.0003873-8Zm-.0004503-14v8c-6.6788929.0000737-13.3577153 2.2930005-18.7545206 6.8787802l-.4605575.4014351c-.6837521.632596-1.7229212.6504042-2.4262698.066851l-.1277737-.1164601-3.27648034-3.276489c-.56626294-.5662629-.60165438-1.4623671-.10617431-2.0698602l.12986469-.1406553.02418191-.0226749C14.0634081 18.2403745 23.0315583 15 31.9997278 15Zm.0005452 0c8.7888061 0 17.5775937 3.1120582 24.5717722 9.335982l.4501394.4076197.0236904.023188c.6040138.6040138.6040138 1.5833137 0 2.1873275l-3.2764804 3.276489-.1277737.1164601c-.6593893.5470811-1.6139333.5656219-2.29407.0445595l-.1904207-.164613C45.6919295 25.4090798 38.846137 23.0000756 32.000273 23v-8Z"/></svg>
