<svg xmlns="http://www.w3.org/2000/svg" viewBox="0 0 64 64"><g fill-rule="evenodd"><path fill-rule="nonzero" d="M48.9705627 15.0294373c9.3725831 9.372583 9.3725831 24.5685424 0 33.9411254-.7810485.7810486-2.0473785.7810486-2.8284271 0-.7810486-.7810485-.7810486-2.0473785 0-2.8284271 7.8104859-7.8104858 7.8104859-20.4737854 0-28.2842712-7.8104858-7.8104859-20.4737854-7.8104859-28.2842712 0-7.8104859 7.8104858-7.8104859 20.4737854 0 28.2842712.7810486.7810486.7810486 2.0473786 0 2.8284271-.7810486.7810486-2.0473786.7810486-2.8284271 0-9.37258305-9.372583-9.37258305-24.5685424 0-33.9411254 9.372583-9.37258305 24.5685424-9.37258305 33.9411254 0Zm-2.6677442 9.7913749c3.0114304 5.9951741 2.0148302 13.4889561-2.98911 18.4928963-.3905243.3905243-1.0236893.3905243-1.4142136 0-.3905243-.3905243-.3905243-1.0236893 0-1.4142136 4.1877383-4.1877383 5.1678562-10.3684364 2.9403535-15.489058l1.4629701-1.5896247Zm-7.1230954-7.1243215-1.59016 1.4636609c-5.1206216-2.2275027-11.3013197-1.2473848-15.489058 2.9403535-5.4673401 5.46734-5.4673401 14.3316498 0 19.7989898.3905243.3905243.3905243 1.0236893 0 1.4142136-.3905243.3905243-1.0236893.3905243-1.4142136 0-6.2483887-6.2483887-6.2483887-16.3790283 0-22.627417 5.0039402-5.0039402 12.4977222-6.0005404 18.4934316-2.9898008Zm4.1339854 2.9898008c.3951976.3951976.408453 1.0317305.0300502 1.4430378l-7.6550854 8.3207919c.6101769 1.453679.3234282 3.1946315-.8602462 4.3783059-1.1000049 1.100005-2.6812887 1.4254032-4.0660329.9761949l-1.6509218 1.7945838c-.7173443.779722-1.9309562.8302891-2.7106782.1129449l-.0576484-.0552965c-.7491826-.7491825-.7491826-1.9638475 0-2.7130301l.0576484-.0552965 1.7945838-1.6509218c-.4492083-1.3847442-.1238101-2.966028.9761949-4.0660329 1.1836744-1.1836744 2.9246269-1.4704231 4.3783059-.8602462l8.3207919-7.6550854c.4113073-.3784028 1.0478402-.3651474 1.4430378.0300502Z"/><path d="M33.6137896 44.1719446c.138464-.1577528.3621451-.2135624.5601166-.139752.2605933.0971579.3919125.3840766.2933096.640851L32.938 48.75h2.5574983c.0908986 0 .1795187.0241829.2568208.0692313l.0731946.0518806c.210741.1795915.2338274.4935149.051565.7011675l-5.4908683 6.255776c-.138464.1577528-.3621451.2135624-.5601166.139752-.2605933-.0971579-.3919125-.3840766-.2933096-.640851L31.062 51.25h-2.5574983c-.0908986 0-.1795187-.0241829-.2568208-.0692313l-.0731946-.0518806c-.210741-.1795915-.2338274-.4935149-.051565-.7011675Z"/></g></svg>
