<svg xmlns="http://www.w3.org/2000/svg" version="1.0" width="128.000000pt" height="166.000000pt" viewBox="0 0 128.000000 166.000000" preserveAspectRatio="xMidYMid meet">
    <g transform="translate(0.000000,166.000000) scale(0.100000,-0.100000)" fill="#000000" stroke="none">
        <path d="M313 1653 c-40 -2 -73 -8 -73 -13 0 -12 757 -14 764 -2 11 18 -428 27 -691 15z"/>
        <path d="M51 1596 c-40 -22 -50 -54 -51 -160 0 -94 20 -208 114 -656 l12 -55 495 -3 495 -2 18 82 c89 412 106 514 106 631 0 118 0 119 -29 148 l-29 29 -554 0 c-440 -1 -558 -3 -577 -14z m1140 -52 c39 -41 32 -139 -30 -439 -28 -137 -57 -272 -64 -300 l-13 -50 -456 -3 c-357 -2 -458 1 -466 10 -15 19 -119 521 -136 658 -7 52 6 104 30 131 16 18 43 19 564 19 l547 0 24 -26z"/>
        <path d="M140 678 c1 -41 95 -374 122 -428 39 -80 106 -148 180 -183 52 -25 67 -27 181 -27 118 0 127 1 185 31 69 34 140 107 179 182 13 27 45 129 69 226 24 97 47 184 50 194 5 16 -22 17 -480 17 -382 0 -486 -3 -486 -12z m914 -36 c8 -13 -71 -309 -96 -362 -53 -113 -149 -191 -263 -211 -190 -36 -368 70 -428 256 -21 65 -77 289 -77 309 0 14 43 16 429 16 237 0 432 -4 435 -8z"/>
    </g>
</svg>
