<svg xmlns="http://www.w3.org/2000/svg" viewBox="0 0 24 30"><g data-name="triangle switch"><path d="M20.43 21H3.57a2.56 2.56 0 01-2.2-3.89L9.69 3.25A2.57 2.57 0 0111.89 2h.22a2.57 2.57 0 012.2 1.25l8.32 13.86a2.56 2.56 0 01-2.2 3.89zM11.89 4a.59.59 0 00-.49.27L3.08 18.14a.6.6 0 00-.08.29.56.56 0 00.57.57h16.86a.56.56 0 00.57-.57.6.6 0 00-.08-.29L12.6 4.28a.58.58 0 00-.49-.28z"/><path d="M13 9.22l-1.56 4.23L10.5 12h3.11a.94.94 0 01.94.94.91.91 0 01-.16.51L12 17.22a.5.5 0 01-.9-.44l1.56-4.23.84 1.45h-3.11a.94.94 0 01-.94-.94.91.91 0 01.16-.51l2.44-3.77a.5.5 0 01.9.44z"/></g></svg>
