<svg xmlns="http://www.w3.org/2000/svg" viewBox="0 0 100 125"><defs/><path d="M51 35v-4c0-3.1-2.3-5.6-5.4-6l-3-15.2C42 7 39.6 5 36.7 5h-5.4c-2.9 0-5.3 2-5.9 4.8l-3 15.2c-3 .3-5.4 2.9-5.4 6v4c-3.9 0-7 3.1-7 7v46c0 3.9 3.1 7 7 7h34c3.9 0 7-3.1 7-7V42c0-3.9-3.1-7-7-7zM14 49h40v32H14V49zm33-18v4h-6v-6h4c1.1 0 2 .9 2 2zm-16 4v-6h6v6h-6zm-1.7-24.4c.2-.9 1-1.6 2-1.6h5.4c1 0 1.8.7 2 1.6L41.6 25H26.4l2.9-14.4zM21 31c0-1.1.9-2 2-2h4v6h-6v-4zm-7 11c0-1.7 1.3-3 3-3h34c1.7 0 3 1.3 3 3v3H14v-3zm40 46c0 1.7-1.3 3-3 3H17c-1.7 0-3-1.3-3-3v-3h40v3zm30-63H70c-3.3 0-6 2.7-6 6v58c0 3.3 2.7 6 6 6h14c3.3 0 6-2.7 6-6V31c0-3.3-2.7-6-6-6zM68 39h18v40c0 1.1-.9 2-2 2H70c-1.1 0-2-.9-2-2V39zm2-10h14c1.1 0 2 .9 2 2v4H68v-4c0-1.1.9-2 2-2zm14 62H70c-1.1 0-2-.9-2-2v-4.4c.6.2 1.3.4 2 .4h14c.7 0 1.4-.1 2-.4V89c0 1.1-.9 2-2 2z"/></svg>
