<svg xmlns="http://www.w3.org/2000/svg" viewBox="0 0 50 62.5"><path d="M36.045 3.58v4.09h-22.1V3.58c0-1.98 1.6-3.58 3.58-3.58h2.06v2.05c0 .63.51 1.13 1.13 1.13s1.13-.5 1.13-1.13V0h2.03v2.05c0 .63.5 1.13 1.13 1.13.62 0 1.12-.5 1.12-1.13V0h2.02v2.05a1.135 1.135 0 002.27 0V0h2.06c1.98 0 3.57 1.6 3.57 3.58zM42.845 45.7l-5.88-28.28-.488-2.355a2.697 2.697 0 00-.123-5.394H13.64a2.698 2.698 0 00-.108 5.396l-.488 2.353-5.89 28.28c-.46 2.22 1.23 4.3 3.49 4.3h28.7c2.27 0 3.96-2.08 3.5-4.3zm-3.04 1.11c-.08.1-.23.21-.46.21h-28.7c-.23 0-.37-.11-.45-.21a.582.582 0 01-.12-.5l3.4-16.34h23.06l3.4 16.34c.04.22-.05.39-.13.5z"/></svg>
