<svg xmlns="http://www.w3.org/2000/svg" viewBox="0 0 100 125"><defs/><path d="M7.375 5A2.377 2.377 0 005 7.375v12.531a2.377 2.377 0 002.375 2.375h12.531a2.377 2.377 0 002.375-2.375V7.375A2.377 2.377 0 0019.906 5H7.375zm23.25 1.188a2.377 2.377 0 00-2.375 2.375V18.75a2.377 2.377 0 002.375 2.375h10.188a2.377 2.377 0 002.374-2.375V8.562a2.377 2.377 0 00-2.374-2.374H30.624zm20.906 1a2.377 2.377 0 00-2.375 2.375v8.187a2.377 2.377 0 002.375 2.375h8.157a2.377 2.377 0 002.374-2.375V9.562a2.377 2.377 0 00-2.374-2.374H51.53zm18.875.875c-1.291 0-2.375 1.033-2.375 2.343v6.469a2.377 2.377 0 002.375 2.375h6.469a2.377 2.377 0 002.375-2.375v-6.469c0-1.31-1.083-2.344-2.375-2.344h-6.469zm17.188.718a2.377 2.377 0 00-2.375 2.375v5a2.377 2.377 0 002.375 2.375h5.031A2.377 2.377 0 0095 16.156v-5a2.377 2.377 0 00-2.375-2.375h-5.031zM8.563 28.25a2.377 2.377 0 00-2.376 2.375v10.188a2.377 2.377 0 002.375 2.374H18.75a2.377 2.377 0 002.375-2.374V30.624a2.377 2.377 0 00-2.375-2.375H8.562zm22.624.563a2.377 2.377 0 00-2.375 2.375v8.187a2.377 2.377 0 002.375 2.375h8.188a2.377 2.377 0 002.375-2.375v-8.188a2.377 2.377 0 00-2.375-2.375h-8.188zm20.625.468a2.377 2.377 0 00-2.374 2.375v6.469a2.377 2.377 0 002.374 2.375h6.47a2.377 2.377 0 002.374-2.375v-6.469a2.377 2.377 0 00-2.375-2.375h-6.468zm18.938.407a2.377 2.377 0 00-2.375 2.375v5.03a2.377 2.377 0 002.375 2.376h5a2.377 2.377 0 002.375-2.375v-5.032a2.377 2.377 0 00-2.375-2.374h-5zm17.469.343a2.377 2.377 0 00-2.375 2.375v3.782a2.377 2.377 0 002.375 2.374H92a2.377 2.377 0 002.375-2.374v-3.782A2.377 2.377 0 0092 30.031h-3.781zM9.563 49.156a2.377 2.377 0 00-2.376 2.375v8.157a2.377 2.377 0 002.375 2.374h8.188a2.377 2.377 0 002.375-2.374V51.53a2.377 2.377 0 00-2.375-2.375H9.562zm22.093.282a2.377 2.377 0 00-2.375 2.374v6.47a2.377 2.377 0 002.375 2.374h6.469a2.377 2.377 0 002.375-2.375v-6.468a2.377 2.377 0 00-2.375-2.376h-6.469zm20.407.25a2.377 2.377 0 00-2.376 2.374v5.032a2.377 2.377 0 002.376 2.375h5.03a2.377 2.377 0 002.376-2.375v-5.032a2.377 2.377 0 00-2.375-2.374h-5.032zM71 49.906a2.377 2.377 0 00-2.375 2.375v3.782A2.377 2.377 0 0071 58.437h3.813a2.377 2.377 0 002.374-2.374V52.28a2.377 2.377 0 00-2.374-2.375H71zm17.719.188a2.377 2.377 0 00-2.375 2.375v2.718a2.377 2.377 0 002.375 2.376h2.75a2.377 2.377 0 002.375-2.376V52.47a2.377 2.377 0 00-2.375-2.375h-2.75zM10.406 68.03c-1.31 0-2.344 1.084-2.344 2.375v6.469c0 1.292 1.034 2.375 2.344 2.375h6.469a2.377 2.377 0 002.375-2.375v-6.469a2.377 2.377 0 00-2.375-2.375h-6.469zm21.657.344a2.377 2.377 0 00-2.376 2.375v5a2.377 2.377 0 002.375 2.375h5.032a2.377 2.377 0 002.375-2.375v-5a2.377 2.377 0 00-2.375-2.375h-5.032zm20.218.25A2.377 2.377 0 0049.906 71v3.813a2.377 2.377 0 002.375 2.374h3.782a2.377 2.377 0 002.374-2.374V71a2.377 2.377 0 00-2.374-2.375H52.28zm18.969.25a2.377 2.377 0 00-2.375 2.375V74a2.377 2.377 0 002.375 2.375H74A2.377 2.377 0 0076.375 74v-2.75A2.377 2.377 0 0074 68.875h-2.75zm17.938.188a2.377 2.377 0 00-2.376 2.374v1.876a2.377 2.377 0 002.376 2.374h1.843a2.377 2.377 0 002.375-2.374v-1.876a2.377 2.377 0 00-2.375-2.374h-1.844zM11.156 85.219a2.377 2.377 0 00-2.375 2.375v5.031A2.377 2.377 0 0011.156 95h5a2.377 2.377 0 002.375-2.375v-5.031a2.377 2.377 0 00-2.375-2.375h-5zm21.25.625a2.377 2.377 0 00-2.375 2.375V92a2.377 2.377 0 002.375 2.375h3.782A2.377 2.377 0 0038.562 92v-3.781a2.377 2.377 0 00-2.374-2.375h-3.782zm20.063.5a2.377 2.377 0 00-2.375 2.375v2.75a2.377 2.377 0 002.375 2.375h2.718a2.377 2.377 0 002.376-2.375v-2.75a2.377 2.377 0 00-2.376-2.375H52.47zm18.968.469a2.377 2.377 0 00-2.374 2.374v1.844a2.377 2.377 0 002.374 2.375h1.876a2.377 2.377 0 002.374-2.375v-1.844a2.377 2.377 0 00-2.374-2.374h-1.876zm18.126.374a2.377 2.377 0 00-2.376 2.376v1.093a2.377 2.377 0 002.376 2.375h1.093a2.377 2.377 0 002.375-2.375v-1.094a2.377 2.377 0 00-2.375-2.374h-1.094z" color="#000" overflow="visible" style="text-indent:0;text-transform:none;block-progression:tb"/></svg>
